<svg width="63" height="63" viewBox="0 0 63 63" fill="none" xmlns="http://www.w3.org/2000/svg">
<g clip-path="url(#clip0_3407_8824)">
<path d="M62.6832 34.3224C63.042 31.8583 63.0934 29.3963 62.8363 26.9932C62.8406 26.9118 62.8256 26.8347 62.8106 26.7543C62.1617 21.1525 59.825 15.9018 55.7352 11.8121C54.9984 11.0742 54.2006 10.3867 53.315 9.7099C52.6671 8.8596 51.9635 8.04143 51.1914 7.26931C40.5445 -3.37758 22.0308 -2.18781 9.92208 9.91979C-2.18552 22.0274 -3.37422 40.5411 7.27267 51.188C8.03087 51.9462 8.84047 52.6219 9.67256 53.2602C10.3633 54.1673 11.0637 54.979 11.8165 55.7308C15.4147 59.329 19.9125 61.565 24.7551 62.4957C24.7765 62.5042 24.799 62.5031 24.8204 62.5106C24.9125 62.5278 25.0046 62.5481 25.0967 62.5642C25.1192 62.5653 25.1406 62.577 25.1631 62.577C25.1674 62.577 25.1706 62.5749 25.1749 62.5749C26.762 62.8533 28.3812 63 30.0197 63C30.9995 63 31.9858 62.9486 32.9732 62.849C32.9871 62.8501 33.0011 62.8576 33.015 62.8576C33.0632 62.8576 33.1092 62.8362 33.1574 62.8298C35.6826 62.561 38.2174 61.9698 40.6933 61.0585C40.7383 61.0435 40.7811 61.0274 40.8251 61.0071C42.5396 60.3678 44.223 59.5721 45.8572 58.6286C45.9632 58.5922 46.0585 58.5312 46.1506 58.4605C47.7249 57.531 49.2488 56.4622 50.702 55.251C50.702 55.251 50.7052 55.2489 50.7073 55.2478L50.7084 55.2457C51.5223 54.5667 52.3169 53.8481 53.0837 53.0814C56.4184 49.7466 58.9201 45.9245 60.5789 41.9162C60.5992 41.8744 60.6174 41.8358 60.6324 41.793C61.6059 39.4135 62.2805 36.9686 62.6543 34.5216C62.6671 34.4541 62.6853 34.3899 62.6832 34.3224ZM59.1974 39.5056L56.3295 36.6377C56.4784 36.2522 56.6219 35.8645 56.7558 35.4758C56.8147 35.3055 56.8682 35.1341 56.9239 34.9628C57.0717 34.5066 57.2088 34.0493 57.3362 33.591C57.3844 33.4164 57.4369 33.2419 57.4818 33.0662C57.575 32.7064 57.6564 32.3455 57.7356 31.9846L60.4514 34.7004C60.1752 36.3121 59.7543 37.9185 59.1974 39.5056ZM56.8147 44.6951L53.8461 41.7266C53.9147 41.612 53.9853 41.4985 54.0517 41.3828C54.0774 41.3379 54.1064 41.294 54.1321 41.2501C54.4683 40.6653 54.781 40.0721 55.0787 39.4756C55.1419 39.3481 55.203 39.2207 55.264 39.0933C55.3176 38.983 55.3722 38.8727 55.4246 38.7624L58.3418 41.6795C57.8941 42.7011 57.3822 43.7067 56.8147 44.6951ZM53.7208 49.1736L50.7105 46.1633C50.9997 45.8164 51.2792 45.4641 51.5523 45.1085C51.5726 45.0817 51.5951 45.056 51.6165 45.0282C51.9817 44.5506 52.3308 44.0665 52.6671 43.5761L55.6538 46.5628C55.0584 47.4538 54.418 48.3266 53.7208 49.1736ZM58.1929 29.4134C58.2197 29.2142 58.2465 29.0161 58.27 28.8169C58.3279 28.3039 58.3728 27.791 58.4039 27.2791C58.4221 26.9846 58.4307 26.6922 58.4392 26.3988C58.4489 26.1022 58.4531 25.8066 58.4542 25.511C58.4542 25.3868 58.4617 25.2615 58.4606 25.1373L60.7374 27.414C60.8884 28.9261 60.9044 30.4639 60.7909 32.0114L58.1929 29.4134ZM57.1027 16.8774C58.4735 18.9785 59.4437 21.2906 60.0649 23.713L58.2336 21.8818C58.2122 21.7125 58.1833 21.5455 58.1586 21.3784C58.118 21.1 58.0783 20.8216 58.0291 20.5453C57.9391 20.0419 57.8352 19.5429 57.7174 19.0481C57.6639 18.8265 57.6029 18.6091 57.544 18.3885C57.4422 18.0072 57.3319 17.6281 57.213 17.2522C57.1723 17.128 57.1434 17.0006 57.1027 16.8774ZM11.4374 11.433C17.5865 5.28386 25.4844 2.13542 32.9871 2.13542C39.239 2.13542 45.2179 4.32327 49.6782 8.78357C50.279 9.38434 50.8369 10.013 51.3552 10.6651L51.6337 11.0335C51.6551 11.0614 51.6754 11.0903 51.6968 11.1181C52.1691 11.7446 52.6039 12.3904 53.0033 13.0543C53.0119 13.0693 53.0205 13.0843 53.029 13.0993C53.421 13.7547 53.7776 14.4283 54.0989 15.1158C54.1139 15.1469 54.1267 15.1801 54.1406 15.2111C54.4448 15.8686 54.7157 16.5401 54.9556 17.2223C54.9759 17.2822 54.9973 17.3411 55.0177 17.4011C55.2265 18.0115 55.4021 18.6326 55.5606 19.2591C55.5971 19.4048 55.6388 19.5483 55.6731 19.695C55.8112 20.285 55.9183 20.8826 56.0126 21.4834C56.0447 21.6911 56.08 21.8978 56.1068 22.1077C56.1818 22.6796 56.2332 23.2557 56.2685 23.8351C56.2835 24.0717 56.2964 24.3095 56.3049 24.5483C56.3253 25.1212 56.3263 25.6974 56.3092 26.2746C56.3017 26.5113 56.2899 26.7469 56.2771 26.9835C56.2439 27.5757 56.1957 28.1701 56.1239 28.7644C56.0993 28.9722 56.0661 29.1799 56.0372 29.3877C55.9472 30.0174 55.8434 30.646 55.7095 31.2735C55.6784 31.4213 55.6388 31.568 55.6056 31.7148C55.461 32.3466 55.2993 32.9763 55.1109 33.6038C55.083 33.6981 55.0573 33.7934 55.0284 33.8876C54.8132 34.5816 54.5679 35.2701 54.3002 35.9545C54.2606 36.0573 54.2242 36.1601 54.1824 36.2618C53.9061 36.9472 53.6009 37.6251 53.2721 38.2965C53.2207 38.4015 53.1715 38.5064 53.119 38.6103C52.7827 39.2796 52.4186 39.9403 52.031 40.5936C51.9721 40.6932 51.9121 40.7917 51.8521 40.8902C51.4527 41.5446 51.0297 42.1892 50.5788 42.8221C50.5167 42.9089 50.4524 42.9946 50.3893 43.0813C49.9224 43.7228 49.4329 44.3535 48.9136 44.9682C48.8622 45.0293 48.8075 45.0882 48.7551 45.1492C48.2068 45.7885 47.6349 46.415 47.0288 47.0211C46.4194 47.6305 45.7897 48.2045 45.1472 48.756C45.0915 48.8042 45.0369 48.8545 44.9801 48.9027C44.3601 49.4275 43.7229 49.9211 43.0761 50.3923C42.9968 50.4502 42.9176 50.5091 42.8373 50.5669C42.1969 51.0242 41.5436 51.4525 40.8818 51.8563C40.7929 51.9098 40.704 51.9633 40.6152 52.0169C39.9523 52.4121 39.2797 52.7815 38.5987 53.1231C38.5087 53.1681 38.4187 53.2109 38.3277 53.2548C37.6413 53.5911 36.9484 53.9027 36.2491 54.1844C36.1656 54.2176 36.081 54.2486 35.9964 54.2808C35.2853 54.5592 34.5689 54.8152 33.8481 55.0379C33.786 55.0572 33.7239 55.0722 33.6618 55.0904C33.0021 55.2896 32.3382 55.4598 31.6731 55.6108C31.5478 55.6387 31.4225 55.6729 31.2973 55.6997C30.6515 55.8379 30.0036 55.9439 29.3557 56.037C29.1672 56.0638 28.9777 56.0938 28.7892 56.1163C28.1788 56.1902 27.5705 56.2394 26.9622 56.2737C26.7406 56.2855 26.52 56.2973 26.2994 56.3037C25.7082 56.3219 25.1182 56.3198 24.5313 56.2994C24.3075 56.2919 24.0837 56.2791 23.8609 56.2652C23.2698 56.2287 22.6808 56.1763 22.0961 56.0992C21.9001 56.0735 21.7052 56.0403 21.5092 56.0103C20.8967 55.915 20.2873 55.8057 19.6865 55.6644C19.5516 55.6333 19.4188 55.5937 19.285 55.5605C18.6424 55.3988 18.0042 55.2178 17.3788 55.0026C17.3338 54.9876 17.2899 54.9715 17.2449 54.9565C16.551 54.7134 15.8688 54.4382 15.2005 54.1287C15.1748 54.1169 15.1491 54.1073 15.1245 54.0955C14.4338 53.7732 13.757 53.4144 13.0984 53.0203C13.0855 53.0128 13.0737 53.0064 13.0609 52.9989C12.3959 52.5995 11.748 52.1636 11.1204 51.6903C11.0958 51.6721 11.0712 51.6539 11.0465 51.6346L10.6674 51.3497C10.0152 50.8314 9.3877 50.2745 8.78692 49.6738C-1.02467 39.8611 0.164033 22.7063 11.4374 11.433ZM45.6591 56.2566L42.6649 53.2623C42.8062 53.1713 42.9487 53.0846 43.0889 52.9914C43.1328 52.9625 43.1778 52.9357 43.2207 52.9068C43.7915 52.5256 44.3537 52.1208 44.9073 51.6999C45.0423 51.5971 45.174 51.49 45.3078 51.3861C45.3121 51.3829 45.3164 51.3786 45.3218 51.3754L48.3299 54.3836C47.4604 55.055 46.5726 55.6901 45.6591 56.2566ZM40.6162 58.786L37.7216 55.8914C38.226 55.6762 38.7272 55.4459 39.2251 55.2039C39.3429 55.1461 39.4597 55.0839 39.5775 55.024C39.978 54.8226 40.3763 54.616 40.7715 54.3975L43.7304 57.3564C42.7077 57.8951 41.6689 58.3705 40.6162 58.786ZM33.3791 60.6355L30.7265 57.9829C30.9524 57.9422 31.1773 57.9036 31.4033 57.8587C31.9741 57.7441 32.5448 57.6156 33.1135 57.4678C33.287 57.4228 33.4605 57.3682 33.634 57.32C34.0869 57.1947 34.5378 57.0598 34.9886 56.913C35.1707 56.8541 35.3528 56.7942 35.5337 56.731L38.3748 59.5721C36.7192 60.0797 35.0486 60.4299 33.3791 60.6355ZM17.6647 57.3264C17.8682 57.3875 18.0706 57.4485 18.2751 57.5042C18.8662 57.6648 19.4627 57.803 20.0646 57.9229L21.5274 59.3868C19.9029 58.7978 18.3394 58.0503 16.8808 57.0994C17.1399 57.1851 17.4045 57.2482 17.6647 57.3264ZM25.6493 60.4791L23.5557 58.3845C24.1565 58.4252 24.7583 58.4509 25.3645 58.453C25.4019 58.453 25.4394 58.4584 25.4769 58.4584C25.7179 58.4584 25.961 58.4455 26.203 58.4391C26.702 58.4262 27.2021 58.4016 27.7033 58.363C27.819 58.3545 27.9357 58.3459 28.0514 58.3363L30.5519 60.8368C28.892 60.8689 27.2514 60.7544 25.6493 60.4791ZM49.9973 53.0225L46.9774 50.0025C46.9859 49.995 46.9934 49.9865 47.002 49.979C47.5246 49.5153 48.0397 49.0387 48.542 48.5375C48.7958 48.2837 49.0378 48.0224 49.283 47.7633L52.2998 50.78C52.0545 51.0413 51.8275 51.3122 51.5715 51.5671C51.0607 52.0779 50.5306 52.5534 49.9973 53.0225Z" fill="#1DCBD7"/>
<path d="M9.54065 22.8359C9.69272 22.9098 9.85336 22.9451 10.0108 22.9451C10.407 22.9451 10.7872 22.7245 10.9724 22.3454C11.2691 21.7403 11.5957 21.1406 11.9427 20.5613C12.2468 20.0537 12.083 19.3961 11.5754 19.092C11.0678 18.7879 10.4102 18.9517 10.1061 19.4593C9.72699 20.0901 9.37145 20.7444 9.04911 21.403C8.78995 21.9353 9.00949 22.5767 9.54065 22.8359Z" fill="#1DCBD7"/>
<path d="M14.9434 16.0474C15.2282 16.0474 15.5142 15.9382 15.7273 15.724C16.1963 15.255 16.6868 14.8009 17.1869 14.3736C17.6367 13.9892 17.6892 13.3134 17.3047 12.8637C16.9203 12.415 16.2445 12.3625 15.7947 12.7459C15.2539 13.2085 14.7217 13.7011 14.197 14.2258L14.9337 15.0033L14.1766 14.2462C13.7579 14.6649 13.7761 15.3235 14.1948 15.7422C14.4004 15.9468 14.6714 16.0474 14.9434 16.0474Z" fill="#1DCBD7"/>
<path d="M10.8814 43.1252C10.4167 43.4914 10.3374 44.165 10.7037 44.6287C11.1566 45.2038 11.6525 45.7606 12.1279 46.2329C12.1515 46.2597 12.1997 46.3089 12.2265 46.3336C12.4289 46.5231 12.6848 46.6163 12.9408 46.6163C13.2224 46.6163 13.503 46.5039 13.7161 46.2832C14.122 45.8624 14.1048 45.1834 13.6915 44.7701C13.2267 44.3053 12.7876 43.8116 12.386 43.3029C12.0187 42.8382 11.3462 42.7589 10.8814 43.1252Z" fill="#1DCBD7"/>
<path d="M49.7166 28.3917C49.6512 29.0546 49.5527 29.7271 49.4231 30.3911C49.3096 30.9715 49.6887 31.5337 50.2691 31.6472C50.3377 31.6612 50.4073 31.6676 50.4748 31.6676C50.977 31.6676 51.4246 31.3131 51.5242 30.8012C51.6667 30.0709 51.7748 29.3309 51.8477 28.6016C51.9055 28.0137 51.4761 27.4889 50.8871 27.4311C50.2991 27.3722 49.7755 27.8038 49.7166 28.3917Z" fill="#1DCBD7"/>
<path d="M17.1912 48.711C16.9459 49.2486 17.1826 49.8847 17.7202 50.1299C18.3949 50.4383 19.0995 50.7114 19.8127 50.9427C19.923 50.9781 20.0344 50.9952 20.1436 50.9952C20.5956 50.9952 21.0154 50.7071 21.1621 50.2541C21.3441 49.6919 21.0368 49.0879 20.4735 48.9048C19.8374 48.6981 19.2109 48.455 18.6101 48.1809C18.0715 47.9346 17.4364 48.1723 17.1912 48.711Z" fill="#1DCBD7"/>
<path d="M49.4157 22.3775C49.5206 22.883 49.9661 23.23 50.463 23.23C50.5348 23.23 50.6086 23.2225 50.6825 23.2075C51.2619 23.0875 51.6335 22.52 51.5125 21.9406C51.3604 21.2092 51.1666 20.481 50.9363 19.7763C50.7532 19.2152 50.1514 18.9068 49.5859 19.0899C49.0237 19.273 48.7164 19.8781 48.8995 20.4403C49.1062 21.0721 49.2797 21.7232 49.4157 22.3775Z" fill="#1DCBD7"/>
<path d="M9.57385 38.0437C9.36717 37.4151 9.19368 36.764 9.05554 36.1086C8.93453 35.5303 8.37016 35.1609 7.78759 35.2808C7.20823 35.4018 6.8377 35.9705 6.95979 36.5488C7.114 37.2813 7.3089 38.0084 7.53914 38.712C7.68693 39.1628 8.10672 39.4488 8.5565 39.4488C8.6668 39.4488 8.77925 39.4306 8.89062 39.3952C9.45177 39.211 9.75805 38.606 9.57385 38.0437Z" fill="#1DCBD7"/>
<path d="M7.68052 31.0636C8.2256 31.0636 8.69145 30.6492 8.74499 30.0966C8.81032 29.4337 8.90777 28.7612 9.03628 28.0961C9.14872 27.5157 8.76855 26.9535 8.18812 26.841C7.60662 26.7297 7.04547 27.1088 6.93303 27.6892C6.79167 28.4196 6.68458 29.1595 6.6139 29.8888C6.55607 30.4778 6.98764 31.0015 7.57557 31.0583C7.61091 31.0615 7.64518 31.0636 7.68052 31.0636Z" fill="#1DCBD7"/>
<path d="M26.4127 51.9569C26.4127 51.9569 26.4148 51.9569 26.417 51.9569C27.1538 51.9547 27.9013 51.9151 28.6391 51.8412C29.2281 51.7823 29.6575 51.2576 29.5986 50.6686C29.5397 50.0806 29.0171 49.6555 28.426 49.709C27.7567 49.7765 27.0777 49.8119 26.4084 49.814C25.8173 49.8161 25.3397 50.298 25.3418 50.8892C25.3439 51.4803 25.8226 51.9569 26.4127 51.9569Z" fill="#1DCBD7"/>
<path d="M34.7047 50.3473C34.8343 50.3473 34.966 50.3237 35.0934 50.2734C35.7745 50.0078 36.4556 49.7069 37.1206 49.3792C37.6518 49.1168 37.8692 48.4754 37.6079 47.9453C37.3466 47.4152 36.7051 47.1989 36.174 47.458C35.5646 47.7589 34.9392 48.0352 34.3159 48.2783C33.7644 48.4936 33.4924 49.1147 33.7077 49.6651C33.8715 50.0892 34.2763 50.3473 34.7047 50.3473Z" fill="#1DCBD7"/>
<path d="M29.8985 8.75568C29.9349 8.75568 29.9713 8.75461 30.0077 8.75033C30.677 8.68286 31.356 8.64645 32.0253 8.64217C32.6164 8.63895 33.094 8.15705 33.0908 7.56591C33.0876 6.97692 32.6089 6.50037 32.0199 6.50037C32.0199 6.50037 32.0167 6.50037 32.0146 6.50037C31.2778 6.50358 30.5292 6.54427 29.7914 6.61924C29.2035 6.67921 28.7751 7.20395 28.8351 7.79294C28.8908 8.34446 29.3555 8.75568 29.8985 8.75568Z" fill="#1DCBD7"/>
<path d="M21.7896 11.1234C21.9492 11.1234 22.1109 11.0881 22.264 11.0121C22.8691 10.7122 23.4934 10.4359 24.121 10.1885C24.6714 9.97222 24.9434 9.3511 24.726 8.80066C24.5097 8.25022 23.8886 7.97714 23.3381 8.1956C22.6538 8.46333 21.9717 8.76639 21.312 9.09302C20.7819 9.35539 20.5656 9.99793 20.8279 10.528C21.0164 10.905 21.3955 11.1234 21.7896 11.1234Z" fill="#1DCBD7"/>
<path d="M46.0991 15.1789C46.31 15.4477 46.6249 15.588 46.9419 15.588C47.1732 15.588 47.4077 15.5131 47.6037 15.3589C48.0685 14.9926 48.1488 14.3201 47.7836 13.8553C47.322 13.2695 46.8198 12.703 46.2768 12.1601L45.4865 12.884L46.2436 12.1269C45.8249 11.7071 45.1706 11.7306 44.7519 12.1494C44.3332 12.5681 44.3567 13.2685 44.7744 13.6872C45.2445 14.1573 45.69 14.6596 46.0991 15.1789Z" fill="#1DCBD7"/>
<path d="M47.4773 36.1375C47.1818 36.7404 46.8541 37.3402 46.5049 37.9216C46.1997 38.4293 46.3647 39.0868 46.8712 39.3909C47.0436 39.4948 47.2342 39.5441 47.4216 39.5441C47.7847 39.5441 48.1391 39.3588 48.3405 39.0247C48.7206 38.3918 49.0773 37.7385 49.3996 37.0831C49.6609 36.552 49.4424 35.9105 48.9113 35.6492C48.3801 35.389 47.7386 35.6074 47.4773 36.1375Z" fill="#1DCBD7"/>
<path d="M37.9613 9.54172C38.5953 9.74626 39.2228 9.98829 39.8268 10.2624C39.9703 10.3278 40.1202 10.3588 40.2691 10.3588C40.676 10.3588 41.0658 10.1254 41.2447 9.7302C41.4888 9.19154 41.25 8.55649 40.7114 8.31233C40.0346 8.00498 39.3299 7.73297 38.6188 7.5038C38.0555 7.32282 37.4526 7.63123 37.2706 8.19453C37.0885 8.75782 37.3991 9.36074 37.9613 9.54172Z" fill="#1DCBD7"/>
<path d="M41.1344 45.6139C41.3464 45.8613 41.6473 45.9898 41.9493 45.9898C42.1946 45.9898 42.4419 45.9052 42.6443 45.7339C43.1969 45.2627 43.7377 44.7626 44.2507 44.2485L44.2635 44.2357C44.6823 43.817 44.6748 43.1455 44.2571 42.7279C43.8384 42.3102 43.1541 42.3166 42.7364 42.7343C42.262 43.2087 41.763 43.6703 41.2532 44.105C40.8035 44.4874 40.7499 45.1631 41.1344 45.6139Z" fill="#1DCBD7"/>
<path d="M6.87306 59.3429C5.10179 59.3429 3.66036 57.9014 3.66036 56.1302C3.66036 55.539 3.18059 55.0593 2.58946 55.0593C1.99832 55.0593 1.51855 55.539 1.51855 56.1302C1.51855 59.0826 3.92058 61.4847 6.87306 61.4847C7.46419 61.4847 7.94396 61.0049 7.94396 60.4138C7.94396 59.8226 7.46419 59.3429 6.87306 59.3429Z" fill="#1DCBD7"/>
<path d="M56.1345 2.58515C57.9057 2.58515 59.3472 4.50635 59.3472 6.86875C59.3472 7.45989 59.8269 7.93965 60.4181 7.93965C61.0092 7.93965 61.489 7.45989 61.489 6.86875C61.489 3.32514 59.0869 0.443352 56.1345 0.443352C55.5433 0.443352 55.0636 0.923115 55.0636 1.51425C55.0636 2.10539 55.5433 2.58515 56.1345 2.58515Z" fill="#1DCBD7"/>
<path d="M61.489 48.6339C61.489 48.0427 61.0092 47.563 60.4181 47.563C59.827 47.563 59.3472 48.0427 59.3472 48.6339C59.3472 53.9477 55.0229 58.272 49.7091 58.272C49.1179 58.272 48.6382 58.7517 48.6382 59.3429C48.6382 59.934 49.1179 60.4138 49.7091 60.4138C56.2052 60.4138 61.489 55.13 61.489 48.6339Z" fill="#1DCBD7"/>
<path d="M61.489 57.2011C60.8978 57.2011 60.4181 57.6808 60.4181 58.272C60.4181 59.4328 58.9466 60.4138 57.2054 60.4138C56.6142 60.4138 56.1345 60.8935 56.1345 61.4847C56.1345 62.0758 56.6142 62.5556 57.2054 62.5556C60.1578 62.5556 62.5599 60.6344 62.5599 58.272C62.5599 57.6808 62.0801 57.2011 61.489 57.2011Z" fill="#1DCBD7"/>
</g>
<defs>
<clipPath id="clip0_3407_8824">
<rect width="63" height="63" fill="white"/>
</clipPath>
</defs>
</svg>
