<svg width="409" height="402" viewBox="0 0 409 402" fill="none" xmlns="http://www.w3.org/2000/svg">
<path d="M270 157C270.153 167.09 267.557 177.032 262.49 185.76C245.13 214.89 205.33 216 197.74 216C187.01 216 175.64 214.42 169.01 212.21C160.49 212.21 154.81 217.21 154.81 223.21C154.81 230.79 160.49 233.63 171.81 233.63H222.32C252.94 233.63 273.78 249.73 273.78 280.03C273.78 312.55 248.53 333.38 208.43 333.38H144.7C114.7 333.38 98.3 318.86 98.3 296.76C98.3 279.09 110.3 264.88 130.81 261.09L131.13 259.2C121.34 254.78 114.71 244.04 114.71 231.73C114.71 213.42 129.55 200.48 147.23 197.64L147.86 194.48C137.13 186.59 131.44 172.07 131.44 157.23C131.38 149.143 133.169 141.15 136.67 133.86C141.53 124.02 166.22 99.38 201.53 100.09C227.05 100.6 253.71 114.2 264.31 135.26C267.626 142.059 269.56 149.448 270 157ZM153.54 274.11C145.97 276.01 141.86 281.38 141.86 287.69C141.86 295.58 148.49 300 157.96 300H202.47C215.42 300 221.1 294 221.1 285.79C221.1 278.22 215.73 274.11 207.53 274.11H153.54ZM226.47 157C226.47 144.05 217.31 134.9 202.47 134.9C187.32 134.9 176.27 145 176.27 159.2C176.27 172.2 185.74 180.99 199.95 180.99C215.73 181 226.47 170.88 226.47 157Z" fill="#1DCBD7"/>
<path d="M314.61 98.91C314.61 85.97 305.46 76.81 290.61 76.81C275.45 76.81 264.41 86.91 264.41 101.12C264.41 114.06 273.88 122.9 288.08 122.9C303.87 122.9 314.61 112.8 314.61 98.91Z" fill="#1DCBD7"/>
</svg>
