<svg width="1202" height="548" viewBox="0 0 1202 548" fill="none" xmlns="http://www.w3.org/2000/svg">
<path d="M135.24 29.11C188.96 29.11 229.04 57.28 234.24 99.67L181.68 102.86C175.88 85.15 157.29 74.41 134.07 74.41C98.3501 74.41 73.67 100.83 73.67 139.16C73.67 174.58 94.58 193.16 125.67 193.16C150.93 193.16 168.94 180.96 175.33 162.38H120.15L125.95 127.82H234.26L218.26 232.07H180L183.45 210H179.38C168.06 226 143.96 235.84 114.92 235.84C59.75 235.84 21.42 199.84 21.42 141.18C21.42 75.57 69.33 29.11 135.24 29.11Z" fill="#1DCBD7"/>
<path d="M253.41 232.08L276.64 85.44H321.94L318.16 109H321.35C330.35 93 342.55 84 359.68 83.45C364.638 83.4772 369.588 83.8649 374.49 84.61L370.13 128.46C365.2 127 358.81 126.71 354.13 126.71C333.51 126.71 321.31 134.26 313.18 149.65L300.12 232.12L253.41 232.08Z" fill="#1DCBD7"/>
<path d="M459.27 81.67C501.95 81.67 531.86 109.25 531.86 148.16C531.86 156.29 530.7 163.84 528.38 169.94H423.85C422.11 188.52 433.72 200.72 453.17 200.72C466.53 200.72 476.98 194.62 480.17 184.72H528.08C522.85 215.5 493.23 236.11 454.33 236.11C408.16 236.11 377.96 206.78 377.96 162.65C378 115.06 411.36 81.67 459.27 81.67ZM484.27 141.77C483.4 126.09 473.53 116.51 457.27 116.51C441.88 116.51 430.55 126.38 427.94 141.77H484.27Z" fill="#1DCBD7"/>
<path d="M632.9 81.67C675.58 81.67 705.49 109.25 705.49 148.16C705.49 156.29 704.33 163.84 702 169.94H597.47C595.73 188.52 607.34 200.72 626.8 200.72C640.16 200.72 650.61 194.62 653.8 184.72H701.71C696.49 215.5 666.87 236.11 627.96 236.11C581.79 236.11 551.59 206.78 551.59 162.65C551.59 115.06 585 81.67 632.9 81.67ZM657.9 141.77C657.03 126.09 647.15 116.51 630.9 116.51C615.52 116.51 604.19 126.38 601.58 141.77H657.9Z" fill="#1DCBD7"/>
<path d="M720.58 232.08L743.81 85.44H787.94L785 103.73H790.23C798.94 88.64 815.23 81.09 832.04 81.09C864.85 81.09 882.56 106.09 876.75 143.81L862.82 232.08H816.11L829.17 147.29C832.08 129.58 824.24 121.16 810.59 121.16C798.39 121.16 787.94 129 781.59 140.9L767.36 232.08H720.58Z" fill="#1DCBD7"/>
<path d="M21.42 465.09L52.78 266.19H153.54C193.32 266.19 213.06 285.65 213.06 313.52C213.06 338.2 199.71 358.24 176.19 364.92L175.9 368.11C193.61 374.21 203.19 388.73 203.19 406.73C203.19 443.03 176.48 465.09 136.7 465.09H21.42ZM76.88 426.48H126.25C143.09 426.48 154.12 417.48 154.12 402.67C154.12 390.47 145.7 382.34 132.92 382.34H83.85L76.88 426.48ZM89.08 349.24H132.92C149.47 349.24 160.8 339.66 160.8 324.56C160.8 312.07 152.67 304.56 139.6 304.56H96.05L89.08 349.24Z" fill="#1DCBD7"/>
<path d="M382.33 318.46L359.11 465.09H315L317.9 446.8H312.68C304.55 461.03 288.58 469.45 271.16 469.45C240.67 469.45 222.66 446.51 228.47 408.76L242.7 318.46H289.45L276.67 401.46C273.77 420.05 281.03 427.6 293.51 427.6C305.71 427.6 315.58 418.89 321.68 406.4L335.62 318.4L382.33 318.46Z" fill="#1DCBD7"/>
<path d="M417.75 318.46H464.5L441.27 465.09H394.52L417.75 318.46Z" fill="#1DCBD7"/>
<path d="M476.1 465.09L509.21 255.45H556L522.85 465.09H476.1Z" fill="#1DCBD7"/>
<path d="M696.19 255.45H742.94L709.84 465.09H666L669.19 445.93H665.13C657.29 460.16 639.28 469.45 618.67 469.45C583.53 469.45 560.3 441.87 560.3 401.21C560.3 351.56 591.37 314.68 634.93 314.68C655.54 314.68 673.55 324.27 679.64 338.5H683.42L696.19 255.45ZM677 376.82C674.71 362.3 662.8 353 647.7 353C623.89 353 609.08 371.3 609.08 398C609.08 418 621.86 431.39 638.7 431.39C654.38 431.39 667.45 423.26 671.8 411.39L677 376.82Z" fill="#1DCBD7"/>
<path d="M767.9 318.46H814.65L791.42 465.09H744.67L767.9 318.46Z" fill="#1DCBD7"/>
<path d="M826.25 465.09L849.48 318.46H893.62L890.72 336.75H895.94C904.65 321.65 920.94 314.11 937.75 314.11C970.57 314.11 988.28 339.11 982.47 376.82L968.53 465.09H921.78L934.85 380.31C937.75 362.6 929.91 354.18 916.27 354.18C904.07 354.18 893.62 362.02 887.27 373.92L873 465.09H826.25Z" fill="#1DCBD7"/>
<path d="M1140.13 366.66C1140.27 375.944 1137.88 385.091 1133.22 393.12C1117.22 419.91 1080.62 420.96 1073.63 420.96C1063.76 420.96 1053.31 419.51 1047.21 417.47C1039.37 417.47 1034.15 422.12 1034.15 427.64C1034.15 434.64 1039.37 437.22 1049.83 437.22H1096.28C1124.45 437.22 1143.61 452.03 1143.61 479.9C1143.61 509.81 1120.38 528.98 1083.51 528.98H1024.85C997.27 528.98 982.17 515.62 982.17 495.29C982.17 479.03 993.17 465.97 1012.08 462.48L1012.37 460.74C1003.37 456.67 997.27 446.8 997.27 435.48C997.27 418.64 1010.92 406.73 1027.18 404.12L1027.76 401.21C1017.88 393.96 1012.66 380.6 1012.66 366.95C1012.6 359.515 1014.24 352.164 1017.46 345.46C1021.93 336.4 1044.64 313.74 1077.12 314.39C1100.59 314.87 1125.12 327.39 1134.87 346.74C1137.92 352.969 1139.7 359.739 1140.13 366.66ZM1033 474.39C1026 476.13 1022.26 481.07 1022.26 486.87C1022.26 494.13 1028.36 498.2 1037.07 498.2H1078C1089.91 498.2 1095.13 492.68 1095.13 485.13C1095.13 478.13 1090.19 474.39 1082.65 474.39H1033ZM1100.08 366.66C1100.08 354.76 1091.66 346.34 1078.01 346.34C1064.07 346.34 1053.91 355.63 1053.91 368.69C1053.91 380.6 1062.62 388.69 1075.69 388.69C1090.18 388.73 1100.06 379.44 1100.06 366.66H1100.08Z" fill="#1DCBD7"/>
<path d="M1181.13 313.23C1181.13 301.33 1172.71 292.91 1159.06 292.91C1145.13 292.91 1134.96 302.2 1134.96 315.27C1134.96 327.17 1143.67 335.27 1156.74 335.27C1171.26 335.3 1181.13 326 1181.13 313.23Z" fill="#1DCBD7"/>
<path d="M820.74 276.5C820.74 264.6 812.33 256.18 798.68 256.18C784.74 256.18 774.58 265.47 774.58 278.53C774.58 290.44 783.29 298.53 796.35 298.53C810.87 298.57 820.74 289.28 820.74 276.5Z" fill="#1DCBD7"/>
<path d="M470.59 276.5C470.59 264.6 462.18 256.18 448.53 256.18C434.59 256.18 424.43 265.47 424.43 278.53C424.43 290.44 433.14 298.53 446.2 298.53C460.72 298.57 470.59 289.28 470.59 276.5Z" fill="#1DCBD7"/>
<path d="M980.57 232.08L1003.86 81.64H1050.61L1027.32 232.08H980.57Z" fill="#FFD405"/>
<path d="M1062.68 232.08L1095.78 21.88H1142.53L1109.42 232.08H1062.68Z" fill="#91C896"/>
<path d="M898.29 232.08L912.93 141.7H959.68L945 232.08H898.29Z" fill="#EF797A"/>
</svg>
